<svg xmlns="http://www.w3.org/2000/svg" viewBox="0 0 640 360" role="img">
  <defs>
    <linearGradient id="bgc" x1="0" x2="1" y1="0" y2="1">
      <stop offset="0%" stop-color="#06151d"/>
      <stop offset="100%" stop-color="#0d2833"/>
    </linearGradient>
    <style>
      .frame{fill:#0f2028;stroke:#00e5ff;stroke-width:2}
      .bar{fill:#00e5ff;opacity:.18}
      .title{fill:#d6efff;font:600 34px system-ui,Segoe UI,Arial}
      .nav{fill:#8db6c7;font:500 14px system-ui,Segoe UI,Arial}
      .pill{fill:#00e5ff;opacity:.12;stroke:#00e5ff;stroke-width:1.2}
    </style>
  </defs>
  <rect width="640" height="360" fill="url(#bgc)"/>
  <rect x="60" y="50" width="520" height="260" rx="14" class="frame"/>
  <rect x="60" y="50" width="520" height="52" rx="14" fill="#0a151b"/>
  <circle cx="86" cy="76" r="6" fill="#ff5f56"/>
  <circle cx="106" cy="76" r="6" fill="#ffbd2e"/>
  <circle cx="126" cy="76" r="6" fill="#27c93f"/>
  <text x="180" y="82" class="nav">Home   Services   About   Contact</text>
  <text x="100" y="140" class="title">Corporate Presence</text>
  <rect x="100" y="160" width="180" height="14" class="bar"/>
  <rect x="100" y="180" width="240" height="14" class="bar"/>
  <rect x="100" y="200" width="200" height="14" class="bar"/>
  <rect x="360" y="140" width="160" height="110" rx="10" class="pill"/>
  <rect x="370" y="150" width="140" height="12" class="bar"/>
  <rect x="370" y="170" width="120" height="12" class="bar"/>
  <rect x="370" y="190" width="100" height="12" class="bar"/>
  <rect x="370" y="210" width="80" height="12" class="bar"/>
</svg>
